<svg width="45" height="40" viewBox="0 0 45 40" fill="none" xmlns="http://www.w3.org/2000/svg">
<g filter="url(#filter0_d_1_16)">
<path fill-rule="evenodd" clip-rule="evenodd" d="M38.4853 19.5481C38.9312 16.8953 39.2122 15.1299 39.4441 13.6264C39.676 12.123 39.8588 10.8771 39.9971 9.89322C40.1353 8.90934 40.2289 8.18293 40.3137 7.56225C40.3984 6.93698 40.4742 6.41286 40.5411 5.87035C40.608 5.32783 40.666 4.76233 40.7106 4.27039C40.7552 3.77386 40.7864 3.34628 40.7998 3.01985C40.8087 2.69802 40.7998 2.48194 40.7819 2.33022C40.7641 2.1785 40.7463 2.09574 40.715 1.9946C40.6838 1.89345 40.6437 1.76932 40.5857 1.65438C40.5277 1.53944 40.4564 1.42909 40.3583 1.32795C40.2602 1.2222 40.1353 1.12566 39.9792 1.0429C39.8231 0.960144 39.6314 0.89118 39.4218 0.849802C39.2122 0.808424 38.9803 0.79923 38.7439 0.81762C38.5076 0.83601 38.2712 0.877388 37.9412 0.960144C37.6112 1.0429 37.1876 1.15784 36.6792 1.32795C36.1753 1.49806 35.5866 1.71415 30.6366 3.83822C25.6865 5.9623 16.3751 9.98517 11.7104 12.0127C7.0458 14.0402 7.03688 14.0632 6.89864 14.1276C6.76039 14.1919 6.49728 14.2977 6.18958 14.4402C5.88187 14.5827 5.53403 14.7666 5.24416 14.9368C4.95429 15.1115 4.71794 15.2724 4.53956 15.4241C4.36118 15.5758 4.23186 15.7091 4.15159 15.8287C4.07132 15.9436 4.03564 16.0448 4.0178 16.1689C3.99996 16.293 3.99104 16.4448 4.01334 16.5827C4.03118 16.7206 4.07577 16.8401 4.14267 16.9505C4.20956 17.0608 4.30767 17.162 4.43699 17.2677C4.56632 17.3735 4.73578 17.4838 4.9543 17.5941C5.17727 17.7045 5.4493 17.8194 5.87295 17.9712C6.2966 18.1229 6.86742 18.316 7.63 18.555C8.39257 18.7987 9.34244 19.093 10.0693 19.2907C10.7962 19.4883 11.3002 19.5941 11.7149 19.6722C12.1296 19.7504 12.4552 19.801 12.7763 19.8148C13.0929 19.8286 13.405 19.8148 13.7083 19.7596C14.0115 19.709 14.3103 19.6217 14.5957 19.5251C14.8767 19.4286 15.1398 19.3136 15.4163 19.1711C15.6928 19.0286 15.9782 18.8539 17.3874 17.893C18.7966 16.9321 21.3251 15.185 23.595 13.6173C25.8694 12.0541 27.885 10.6748 28.9955 9.9208C30.1059 9.1668 30.3155 9.03807 30.4716 8.93693C30.6276 8.83578 30.7302 8.76682 30.8372 8.72084C30.9443 8.67487 31.0513 8.65647 31.1494 8.64728C31.2475 8.63808 31.3367 8.63809 31.417 8.65648C31.4928 8.67487 31.5597 8.70705 31.6132 8.74843C31.6667 8.7898 31.7068 8.84498 31.7291 8.94152C31.7514 9.04267 31.7604 9.1852 31.747 9.29554C31.7336 9.40588 31.7024 9.47944 31.524 9.70012C31.3456 9.9254 31.0201 10.2978 30.0657 11.2633C29.1114 12.2334 27.5327 13.7966 26.565 14.7529C25.5973 15.7091 25.2406 16.054 24.9329 16.3528C24.6207 16.6516 24.3531 16.9045 24.0722 17.1758C23.7912 17.447 23.4969 17.7367 23.2115 18.0171C22.9261 18.2976 22.6496 18.5642 22.3865 18.8217C22.1234 19.0792 21.8692 19.3274 21.615 19.5849C21.3608 19.8424 21.1066 20.109 20.9015 20.3343C20.6963 20.5596 20.5403 20.7481 20.4198 20.9136C20.2994 21.0837 20.2147 21.2354 20.1389 21.4009C20.0631 21.5665 19.9962 21.7458 19.965 21.9021C19.9338 22.0584 19.9427 22.1963 19.9873 22.371C20.0363 22.5457 20.1211 22.7572 20.2281 22.9457C20.3351 23.1342 20.4689 23.2997 20.6607 23.4882C20.8524 23.6767 21.0977 23.8882 22.0609 24.5779C23.0242 25.2675 24.6965 26.4353 26.3465 27.5847C27.9965 28.7341 29.6243 29.8651 30.6232 30.5593C31.6266 31.2535 32.0012 31.511 32.3758 31.7041C32.7459 31.8972 33.1116 32.0213 33.3569 32.0995C33.6021 32.1776 33.727 32.2006 33.9411 32.2144C34.1551 32.2282 34.4584 32.2328 34.6813 32.2098C34.9043 32.1868 35.0425 32.1363 35.1986 32.0397C35.3547 31.9478 35.5242 31.8144 35.6981 31.6213C35.872 31.4282 36.0549 31.1754 36.202 30.9133C36.3536 30.6466 36.4696 30.3708 36.5677 30.0949C36.6658 29.8191 36.7372 29.5524 37.0761 27.649C37.415 25.7456 38.026 22.2009 38.4674 19.5481H38.4853Z" fill="white"/>
</g>
<defs>
<filter id="filter0_d_1_16" x="0.409571" y="0.808594" width="43.9843" height="38.5984" filterUnits="userSpaceOnUse" color-interpolation-filters="sRGB">
<feFlood flood-opacity="0" result="BackgroundImageFix"/>
<feColorMatrix in="SourceAlpha" type="matrix" values="0 0 0 0 0 0 0 0 0 0 0 0 0 0 0 0 0 0 127 0" result="hardAlpha"/>
<feOffset dy="3.59055"/>
<feGaussianBlur stdDeviation="1.79528"/>
<feComposite in2="hardAlpha" operator="out"/>
<feColorMatrix type="matrix" values="0 0 0 0 0 0 0 0 0 0 0 0 0 0 0 0 0 0 0.25 0"/>
<feBlend mode="normal" in2="BackgroundImageFix" result="effect1_dropShadow_1_16"/>
<feBlend mode="normal" in="SourceGraphic" in2="effect1_dropShadow_1_16" result="shape"/>
</filter>
</defs>
</svg>
