<?xml version="1.0" encoding="utf-8"?><svg viewBox="0 0 502.66 502.66" xmlns="http://www.w3.org/2000/svg" xmlns:xlink="http://www.w3.org/1999/xlink"><style>:root>svg{display:none}:root>svg:target{display:block}</style><svg viewBox="0 0 502.664 502.664" xml:space="preserve" id="icon" xmlns="http://www.w3.org/2000/svg"><path d="M153.821 358.226 0 274.337v-46.463l153.821-83.414v54.574L46.636 250.523l107.185 53.431v54.272zm26.273 29.358L282.103 115.08h32.227L212.084 387.584h-31.99zm168.749-29.358v-54.272l107.164-52.999-107.164-52.59v-53.927l153.821 83.522v46.183l-153.821 84.083z"/></svg><svg viewBox="0 0 40 30" id="mail" xmlns="http://www.w3.org/2000/svg"><g filter="url(#ba)"><path d="M17.737 15.458a3.27 3.27 0 0 0 4.355.07L36.578 3.004c.195.445.304.936.304 1.453V20.44a3.632 3.632 0 0 1-3.633 3.632H7.302A3.633 3.633 0 0 1 3.67 20.44V4.457c0-.585.139-1.137.384-1.626l13.684 12.627ZM33.249.824c.697 0 1.347.196 1.9.535L20.666 13.88a1.09 1.09 0 0 1-1.452-.023L5.568 1.264a3.617 3.617 0 0 1 1.734-.44H33.25Z"/></g><defs><filter id="ba" x=".763" y=".824" width="39.025" height="29.06" filterUnits="userSpaceOnUse" color-interpolation-filters="sRGB"><feFlood flood-opacity="0" result="BackgroundImageFix"/><feColorMatrix in="SourceAlpha" values="0 0 0 0 0 0 0 0 0 0 0 0 0 0 0 0 0 0 127 0" result="hardAlpha"/><feOffset dy="2.906"/><feGaussianBlur stdDeviation="1.453"/><feComposite in2="hardAlpha" operator="out"/><feColorMatrix values="0 0 0 0 0 0 0 0 0 0 0 0 0 0 0 0 0 0 0.25 0"/><feBlend in2="BackgroundImageFix" result="effect1_dropShadow_1_26"/><feBlend in="SourceGraphic" in2="effect1_dropShadow_1_26" result="shape"/></filter></defs></svg><svg viewBox="0 0 34 34" id="phone" xmlns="http://www.w3.org/2000/svg"><g filter="url(#ca)"><path fill-rule="evenodd" clip-rule="evenodd" d="M22.825 26.506c-1.885-.07-7.227-.808-12.822-6.402C4.409 14.51 3.673 9.17 3.602 7.282 3.497 4.408 5.699 1.615 8.242.525a1.924 1.924 0 0 1 1.892.208c2.094 1.526 3.54 3.836 4.78 5.651a1.97 1.97 0 0 1-.335 2.6l-2.554 1.897a.628.628 0 0 0-.186.806c.579 1.051 1.608 2.617 2.786 3.795 1.18 1.178 2.819 2.275 3.943 2.92a.632.632 0 0 0 .843-.213l1.662-2.53a1.967 1.967 0 0 1 2.692-.435c1.842 1.275 3.991 2.696 5.565 4.71a1.924 1.924 0 0 1 .247 1.944c-1.096 2.557-3.868 4.734-6.752 4.628Z"/></g><defs><filter id="ca" x=".007" y=".367" width="33.318" height="33.323" filterUnits="userSpaceOnUse" color-interpolation-filters="sRGB"><feFlood flood-opacity="0" result="BackgroundImageFix"/><feColorMatrix in="SourceAlpha" values="0 0 0 0 0 0 0 0 0 0 0 0 0 0 0 0 0 0 127 0" result="hardAlpha"/><feOffset dy="3.591"/><feGaussianBlur stdDeviation="1.795"/><feComposite in2="hardAlpha" operator="out"/><feColorMatrix values="0 0 0 0 0 0 0 0 0 0 0 0 0 0 0 0 0 0 0.25 0"/><feBlend in2="BackgroundImageFix" result="effect1_dropShadow_1_21"/><feBlend in="SourceGraphic" in2="effect1_dropShadow_1_21" result="shape"/></filter></defs></svg><svg viewBox="0 0 45 40" id="tg" xmlns="http://www.w3.org/2000/svg"><g filter="url(#da)"><path fill-rule="evenodd" clip-rule="evenodd" d="M38.485 19.548c.446-2.653.727-4.418.96-5.922a285.2 285.2 0 0 0 .552-3.733c.138-.984.232-1.71.317-2.33.084-.626.16-1.15.227-1.693a51.19 51.19 0 0 0 .17-1.6c.044-.496.075-.924.089-1.25a4.89 4.89 0 0 0-.018-.69 2.19 2.19 0 0 0-.196-.676 1.3 1.3 0 0 0-.228-.326 1.415 1.415 0 0 0-.379-.285 2.055 2.055 0 0 0-.557-.193 2.528 2.528 0 0 0-.678-.032 4.68 4.68 0 0 0-.803.142c-.33.083-.753.198-1.262.368-.504.17-1.092.386-6.042 2.51a5775.336 5775.336 0 0 0-18.927 8.175c-4.664 2.027-4.673 2.05-4.811 2.115-.139.064-.402.17-.71.312a11.59 11.59 0 0 0-.945.497 5.46 5.46 0 0 0-.704.487 2.133 2.133 0 0 0-.388.405.736.736 0 0 0-.134.34 1.424 1.424 0 0 0-.005.414.925.925 0 0 0 .13.368c.067.11.165.211.294.317.13.105.299.216.517.326.223.11.495.225.919.377.424.152.994.345 1.757.584a63.8 63.8 0 0 0 2.44.736c.726.197 1.23.303 1.645.381.415.078.74.129 1.061.143.317.014.629 0 .932-.055a5.77 5.77 0 0 0 .888-.235c.28-.096.544-.211.82-.354.277-.142.562-.317 1.971-1.278 1.41-.96 3.938-2.708 6.208-4.276 2.274-1.563 4.29-2.942 5.4-3.696 1.11-.754 1.32-.883 1.477-.984.156-.101.258-.17.365-.216.107-.046.214-.065.312-.074a.851.851 0 0 1 .268.01c.076.018.143.05.196.091a.314.314 0 0 1 .116.194c.022.1.031.243.018.354-.013.11-.045.183-.223.404-.178.225-.504.598-1.458 1.563a423.43 423.43 0 0 1-3.501 3.49c-.968.956-1.324 1.301-1.632 1.6-.312.299-.58.551-.86.823-.282.271-.576.56-.861.841l-.825.805c-.264.257-.518.505-.772.763a25.18 25.18 0 0 0-.713.75 6.97 6.97 0 0 0-.482.579c-.12.17-.205.321-.281.487a2.405 2.405 0 0 0-.174.501.994.994 0 0 0 .022.469c.05.175.134.386.241.575.107.188.24.354.433.542.191.189.437.4 1.4 1.09.963.69 2.636 1.857 4.285 3.007 1.65 1.15 3.278 2.28 4.277 2.974 1.004.694 1.378.952 1.753 1.145.37.193.736.317.98.395.246.079.371.102.585.115.214.014.517.019.74-.004.223-.023.361-.074.518-.17a2.17 2.17 0 0 0 .5-.419c.173-.193.356-.446.503-.708.152-.266.268-.542.366-.818.098-.276.17-.543.508-2.446.339-1.903.95-5.448 1.391-8.1h.018Z"/></g><defs><filter id="da" x=".41" y=".809" width="43.984" height="38.598" filterUnits="userSpaceOnUse" color-interpolation-filters="sRGB"><feFlood flood-opacity="0" result="BackgroundImageFix"/><feColorMatrix in="SourceAlpha" values="0 0 0 0 0 0 0 0 0 0 0 0 0 0 0 0 0 0 127 0" result="hardAlpha"/><feOffset dy="3.591"/><feGaussianBlur stdDeviation="1.795"/><feComposite in2="hardAlpha" operator="out"/><feColorMatrix values="0 0 0 0 0 0 0 0 0 0 0 0 0 0 0 0 0 0 0.25 0"/><feBlend in2="BackgroundImageFix" result="effect1_dropShadow_1_16"/><feBlend in="SourceGraphic" in2="effect1_dropShadow_1_16" result="shape"/></filter></defs></svg></svg>